<svg xmlns="http://www.w3.org/2000/svg" viewBox="0 0 223.29 65.85"><defs><style>.cls-1{fill:#007034;}.cls-2{fill:#cedb50;}.cls-3{fill:#1d1d1d;}.cls-4{fill:#adad0e;}.cls-5{fill:#2363ac;}.cls-6{fill:#4f80fc;}.cls-7{fill:#e89f00;}</style></defs><g id="Capa_2" data-name="Capa 2"><g id="Capa_1-2" data-name="Capa 1"><path class="cls-1" d="M45.32,3.26A32.77,32.77,0,0,0,0,33.3H32.75C32.76,18.57,37.57,10.38,45.32,3.26Z"/><path class="cls-1" d="M65.5,33.3v0Z"/><path class="cls-2" d="M32.75,33.3v0H65.5v0Z"/><path class="cls-2" d="M65.5,33.24C65.48,16.27,59.07,8,49.13,0q-2,1.61-3.81,3.26c-7.75,7.12-12.56,15.31-12.57,30H65.5Z"/><path class="cls-3" d="M93.66,21.59h.81v-.12l-.08-.3c-.22-.84-.4-1.57-.53-2.19a9.58,9.58,0,0,1-.2-2V13.63h2.8a10.36,10.36,0,0,0,3.73-.67,6.63,6.63,0,0,0,2.87-2.07,5.33,5.33,0,0,0,1.1-3.39,5.83,5.83,0,0,0-.84-3.09A6,6,0,0,0,101,2.22a7.38,7.38,0,0,0-3.46-.79H87.89v.11l.09.31c.22.84.4,1.56.53,2.18a9.66,9.66,0,0,1,.2,2V17a9.58,9.58,0,0,1-.2,2c-.13.62-.31,1.35-.53,2.19l-.09.3v.12h5.77ZM95.79,2.77a2.51,2.51,0,0,1,1.92.76,4.09,4.09,0,0,1,1,1.82A8.24,8.24,0,0,1,99,7.5a8.59,8.59,0,0,1-.28,2.24,3.84,3.84,0,0,1-1,1.81,2.63,2.63,0,0,1-1.94.74H93.66V2.77Z"/><path class="cls-3" d="M108.21,21.05a9,9,0,0,0,7.58,0,6.57,6.57,0,0,0,2.76-2.52,7.63,7.63,0,0,0,1-4.08,7.31,7.31,0,0,0-1-4A6.43,6.43,0,0,0,115.8,8a9.46,9.46,0,0,0-7.59,0,6.31,6.31,0,0,0-2.73,2.42,7.45,7.45,0,0,0-1,4,7.72,7.72,0,0,0,1,4.08A6.61,6.61,0,0,0,108.21,21.05Zm1.68-9.6a5.77,5.77,0,0,1,.72-2.18,1.56,1.56,0,0,1,2.8,0,6.19,6.19,0,0,1,.73,2.19,19.29,19.29,0,0,1,.21,3,20.43,20.43,0,0,1-.21,3.06,6.11,6.11,0,0,1-.75,2.28,1.52,1.52,0,0,1-2.77,0,6.7,6.7,0,0,1-.71-2.25,20.47,20.47,0,0,1-.21-3.09A20.74,20.74,0,0,1,109.89,11.45Z"/><path class="cls-3" d="M126.29,19a9.58,9.58,0,0,1-.2-2V11a3.14,3.14,0,0,1,1.67-.5,3.73,3.73,0,0,1,1.86.52,6.63,6.63,0,0,1,1.57,1.29h.14l.73-5a4.63,4.63,0,0,0-2.82-.15,4.3,4.3,0,0,0-2,1.33,8.06,8.06,0,0,0-1.12,1.83V7.39h-5.46V7.5l.09.31c.22.84.39,1.57.51,2.18a9.67,9.67,0,0,1,.19,2v5a9.6,9.6,0,0,1-.19,2q-.18.93-.51,2.19l-.09.3v.12h6.27v-.12l-.08-.3C126.6,20.33,126.42,19.6,126.29,19Z"/><path class="cls-3" d="M134.79,8.71v8.51a5.12,5.12,0,0,0,1.05,3.47,3.64,3.64,0,0,0,2.89,1.2,4.14,4.14,0,0,0,2.9-1,6,6,0,0,0,1.64-2.58,4.83,4.83,0,0,1-2,.5,1.8,1.8,0,0,1-1.36-.5,2.17,2.17,0,0,1-.49-1.54V8.71h3.76V7.39h-3.77v-5h-.08a23.11,23.11,0,0,1-2.91,2.78,20.7,20.7,0,0,1-3.7,2.29V8.71h2Z"/><path class="cls-3" d="M105.87,27.43h-1.43L99.48,41,93.94,27.43h-6v.11l.12.31a10.78,10.78,0,0,1,1.06,4.2v8.73a11.84,11.84,0,0,1-.42,3.12c-.28,1-.61,2.06-1,3.07a3,3,0,0,0-.13.28,1,1,0,0,1-.07.17v.17H92v-.17a.45.45,0,0,0,0-.17,3,3,0,0,0-.13-.28c-.37-1-.7-2-1-3.07a11.84,11.84,0,0,1-.42-3.12V32.05c0-.22,0-.43,0-.64L97,47.59l.09,0v0h1.46l5.93-16.26V43a10.37,10.37,0,0,1-.18,2c-.12.62-.29,1.35-.52,2.19l-.08.3v.12h6.55v-.12l-.08-.3c-.23-.84-.4-1.57-.54-2.19a9.6,9.6,0,0,1-.19-2V32a9.67,9.67,0,0,1,.19-2c.14-.62.31-1.34.54-2.18l.08-.31v-.11h-4.34Z"/><path class="cls-3" d="M125.35,45.16a3.08,3.08,0,0,1-.38-1.83V38a4.72,4.72,0,0,0-1.32-3.52,5.67,5.67,0,0,0-4.11-1.3,20.54,20.54,0,0,0-3,.27c-1.19.18-2.42.41-3.68.71v4.15H113a38.09,38.09,0,0,1,3.69-2.71,5.8,5.8,0,0,1,2.58-1.1c.37,0,.63.24.78.71a9.14,9.14,0,0,1,.23,2.45v1.58c-.08,0-.14-.06-.21-.08a8.11,8.11,0,0,0-1.29-.32,7,7,0,0,0-1.25-.11,6.45,6.45,0,0,0-2.88.46,4.8,4.8,0,0,0-2.14,1.62,4,4,0,0,0-.8,2.48,4.73,4.73,0,0,0,.52,2.18,4.1,4.1,0,0,0,1.55,1.68,4.56,4.56,0,0,0,2.46.65A4.87,4.87,0,0,0,120.17,46a5.11,5.11,0,0,0,.29-.48,3.39,3.39,0,0,0,.7,1.33,3.17,3.17,0,0,0,2.49,1,3.23,3.23,0,0,0,2.2-.73,2.8,2.8,0,0,0,.94-1.88l-.06-.08C126.06,45.47,125.6,45.47,125.35,45.16ZM120,45a2.12,2.12,0,0,1-1.09.31,2,2,0,0,1-1.68-.76,2.91,2.91,0,0,1-.62-1.93,3,3,0,0,1,.32-1.39,2,2,0,0,1,1-.89,3.56,3.56,0,0,1,1.68-.24l.56,0,.14,0V44c0,.24,0,.47,0,.69A2.34,2.34,0,0,1,120,45Z"/><path class="cls-3" d="M135,38.29l-.25-.08c-.84-.3-1.49-.55-1.93-.75a3.76,3.76,0,0,1-1.1-.68,1.25,1.25,0,0,1-.42-1,1.19,1.19,0,0,1,.52-1,2.26,2.26,0,0,1,1.27-.35,4.19,4.19,0,0,1,2.57,1,22.82,22.82,0,0,1,2.89,2.81l.09.09h.14V34.23a13.81,13.81,0,0,0-5.21-1,7.53,7.53,0,0,0-4.46,1.18,3.7,3.7,0,0,0-1.67,3.22,3.93,3.93,0,0,0,.52,2,5,5,0,0,0,1.51,1.61,10.78,10.78,0,0,0,2.5,1.26l.12.06.42.16a12.25,12.25,0,0,1,2.53,1.08,1.42,1.42,0,0,1,.71,1.25,1.34,1.34,0,0,1-.54,1.13,2.19,2.19,0,0,1-1.33.41,4,4,0,0,1-2.34-.83,22.1,22.1,0,0,1-2.67-2.39l-.87-.87h-.14v4.26a17.1,17.1,0,0,0,5.71,1.12,8,8,0,0,0,2.88-.51,4.7,4.7,0,0,0,2.17-1.58,4.58,4.58,0,0,0-.15-5.46A8,8,0,0,0,135,38.29Z"/><path class="cls-3" d="M148.45,38.29l-.25-.08c-.84-.3-1.48-.55-1.93-.75a3.7,3.7,0,0,1-1.09-.68,1.25,1.25,0,0,1-.42-1,1.18,1.18,0,0,1,.51-1,2.29,2.29,0,0,1,1.28-.35,4.16,4.16,0,0,1,2.56,1,22.8,22.8,0,0,1,2.9,2.81l.08.09h.14V34.23a13.77,13.77,0,0,0-5.21-1,7.55,7.55,0,0,0-4.46,1.18,3.72,3.72,0,0,0-1.67,3.22,4,4,0,0,0,.52,2,5.1,5.1,0,0,0,1.51,1.61,10.86,10.86,0,0,0,2.51,1.26l.11.06.42.16a12.66,12.66,0,0,1,2.54,1.08,1.44,1.44,0,0,1,.71,1.25,1.32,1.32,0,0,1-.55,1.13,2.15,2.15,0,0,1-1.33.41,3.91,3.91,0,0,1-2.33-.83,22.86,22.86,0,0,1-2.68-2.39l-.87-.87h-.14v4.26A17.14,17.14,0,0,0,147,47.87a8.1,8.1,0,0,0,2.89-.51,4.76,4.76,0,0,0,2.17-1.58,4.27,4.27,0,0,0,.82-2.67,4.13,4.13,0,0,0-1-2.79A8,8,0,0,0,148.45,38.29Z"/><path class="cls-3" d="M167.81,45.16a3,3,0,0,1-.38-1.83V38a4.72,4.72,0,0,0-1.32-3.52,5.69,5.69,0,0,0-4.11-1.3,20.43,20.43,0,0,0-3,.27c-1.19.18-2.42.41-3.69.71v4.15h.14a39.41,39.41,0,0,1,3.7-2.71,5.8,5.8,0,0,1,2.58-1.1c.37,0,.63.24.78.71a9.24,9.24,0,0,1,.22,2.45v1.58c-.07,0-.13-.06-.21-.08a8.26,8.26,0,0,0-1.28-.32,7,7,0,0,0-1.25-.11,6.43,6.43,0,0,0-2.88.46A4.88,4.88,0,0,0,155,40.85a4.08,4.08,0,0,0-.79,2.48,4.85,4.85,0,0,0,.51,2.18,4.19,4.19,0,0,0,1.56,1.68,4.56,4.56,0,0,0,2.46.65A4.91,4.91,0,0,0,162.63,46a5.11,5.11,0,0,0,.29-.48,3.39,3.39,0,0,0,.7,1.33,3.17,3.17,0,0,0,2.49,1,3.23,3.23,0,0,0,2.2-.73,2.8,2.8,0,0,0,.94-1.88l-.06-.08C168.52,45.47,168.06,45.47,167.81,45.16ZM162.42,45a2.12,2.12,0,0,1-1.1.31,2,2,0,0,1-1.68-.76,3,3,0,0,1-.61-1.93,2.88,2.88,0,0,1,.32-1.39,2,2,0,0,1,1-.89,3.6,3.6,0,0,1,1.68-.24l.56,0,.14,0V44a5.09,5.09,0,0,0,.05.69A3,3,0,0,1,162.42,45Z"/><path class="cls-3" d="M175.6,45a9.6,9.6,0,0,1-.19-2V26.61l-4.76.54-.81.11,0,.11a1.18,1.18,0,0,0,.12.31c.2.67.38,1.34.53,2a9.43,9.43,0,0,1,.22,2.09V43a9.6,9.6,0,0,1-.19,2q-.19.93-.54,2.19l-.08.3v.12h6.3v-.12l-.11-.3Q175.8,45.91,175.6,45Z"/><path class="cls-3" d="M191.83,45a10.37,10.37,0,0,1-.18-2v-9.6h-5.49v.11l.09.31c.22.84.4,1.57.53,2.18a9.67,9.67,0,0,1,.19,2v5.55c0,.27,0,.53.05.79a5.14,5.14,0,0,1-2.15.58,2.2,2.2,0,0,1-1.55-.56,2.4,2.4,0,0,1-.6-1.82V33.39h-5.49v.11l.08.31c.23.84.4,1.57.54,2.18a9.67,9.67,0,0,1,.19,2v5.18a4.56,4.56,0,0,0,1.3,3.45,5.13,5.13,0,0,0,6.25.32,6.52,6.52,0,0,0,1.55-1.81c0,.15.06.32.1.46a8.56,8.56,0,0,0,.77,1.81l.11.2h4.31v-.12l-.08-.3C192.13,46.33,192,45.6,191.83,45Z"/><path class="cls-3" d="M202.78,44.87a3.84,3.84,0,0,1-2.43-.73,4.23,4.23,0,0,1-1.42-2,9.49,9.49,0,0,1-.46-3.09,8.75,8.75,0,0,1,.23-2.3,3.83,3.83,0,0,1,.78-1.66,1.77,1.77,0,0,1,1.43-.63,4.25,4.25,0,0,1,2.84,1.47,17.58,17.58,0,0,1,2.56,3.15h.14l-.08-4.54c-.25-.07-.52-.17-.82-.28a24.57,24.57,0,0,0-2.43-.74,9.77,9.77,0,0,0-2.35-.27,8.19,8.19,0,0,0-3.85.87,6.33,6.33,0,0,0-2.61,2.52,7.87,7.87,0,0,0-.93,3.92,7.38,7.38,0,0,0,1.06,4.07,6.67,6.67,0,0,0,2.72,2.48,7.82,7.82,0,0,0,3.5.81,6.66,6.66,0,0,0,5.19-2.32,6.69,6.69,0,0,0,1.22-2l-.09-.08A7.81,7.81,0,0,1,202.78,44.87Z"/><path class="cls-3" d="M223.23,45.15c-.67.32-1.13.32-1.38,0a3.08,3.08,0,0,1-.38-1.83V38a4.72,4.72,0,0,0-1.32-3.52,5.67,5.67,0,0,0-4.11-1.3,20.54,20.54,0,0,0-3,.27c-1.19.18-2.41.41-3.68.71v4.15h.14a38.09,38.09,0,0,1,3.69-2.71,5.8,5.8,0,0,1,2.58-1.1c.37,0,.63.24.78.71a9.14,9.14,0,0,1,.23,2.45v1.58c-.08,0-.14-.06-.21-.08a8.11,8.11,0,0,0-1.29-.32,7,7,0,0,0-1.25-.11,6.45,6.45,0,0,0-2.88.46A4.8,4.8,0,0,0,209,40.85a4,4,0,0,0-.8,2.48,4.73,4.73,0,0,0,.52,2.18,4.1,4.1,0,0,0,1.55,1.68,4.56,4.56,0,0,0,2.46.65,4.84,4.84,0,0,0,2.36-.55A4.72,4.72,0,0,0,216.67,46a5.11,5.11,0,0,0,.29-.48,3.39,3.39,0,0,0,.7,1.33,3.17,3.17,0,0,0,2.49,1,3.23,3.23,0,0,0,2.2-.73,2.8,2.8,0,0,0,.94-1.88ZM216.46,45a2.12,2.12,0,0,1-1.09.31,2,2,0,0,1-1.68-.76,3,3,0,0,1-.62-1.93,3,3,0,0,1,.32-1.39,2,2,0,0,1,1-.89,3.56,3.56,0,0,1,1.68-.24l.56,0,.14,0V44c0,.24,0,.47,0,.69A2.34,2.34,0,0,1,216.46,45Z"/><path class="cls-4" d="M90.26,58.16a2.64,2.64,0,0,1,1.24.29,2.32,2.32,0,0,1,1.27,1.85h-1a1.87,1.87,0,0,0-.26-.67,1.35,1.35,0,0,0-.51-.47,1.49,1.49,0,0,0-.75-.18,1.62,1.62,0,0,0-.94.27,1.58,1.58,0,0,0-.58.81,4.1,4.1,0,0,0-.2,1.43A3.37,3.37,0,0,0,89,63.42a1.52,1.52,0,0,0,1.28.61,1.49,1.49,0,0,0,.75-.19,1.52,1.52,0,0,0,.51-.5,2.08,2.08,0,0,0,.26-.68h1a2.93,2.93,0,0,1-.22.82,2.24,2.24,0,0,1-.48.7,2.08,2.08,0,0,1-.75.49,2.83,2.83,0,0,1-1.06.18,2.73,2.73,0,0,1-1.51-.41,2.59,2.59,0,0,1-1-1.16,4.46,4.46,0,0,1-.34-1.81,4.4,4.4,0,0,1,.34-1.79,2.49,2.49,0,0,1,1-1.13A2.84,2.84,0,0,1,90.26,58.16Z"/><path class="cls-4" d="M93.48,64.76l2.35-6.51h1.06l2.34,6.51h-1l-.61-1.71H95.08l-.62,1.71Zm1.83-2.58H97.4l-1-3Z"/><path class="cls-4" d="M100.42,64.76V58.25h1.36l1.83,5.18,1.86-5.18h1.35v6.51h-1V59.57L104,64.76h-.84l-1.79-5.15v5.15Z"/><path class="cls-4" d="M108.51,64.76V58.25h2.25a3.13,3.13,0,0,1,1.25.24,2,2,0,0,1,.87.7,2.26,2.26,0,0,1,0,2.25,1.83,1.83,0,0,1-.81.69,2.79,2.79,0,0,1-1.2.24h-1.4v2.39Zm1-3.17h1.38a1.44,1.44,0,0,0,1-.36,1.24,1.24,0,0,0,.39-.95,1.12,1.12,0,0,0-.41-.93,1.62,1.62,0,0,0-1-.32h-1.35Z"/><path class="cls-4" d="M114.34,58.25h1v6.51h-1Z"/><path class="cls-4" d="M121.22,58.25h1v6.51h-.86l-3.39-5v5h-1V58.25h.93l3.31,4.85Z"/><path class="cls-4" d="M126.37,64.85a2.7,2.7,0,0,1-1.49-.4,2.48,2.48,0,0,1-1-1.14,4.2,4.2,0,0,1-.34-1.79,4.13,4.13,0,0,1,.35-1.8,2.57,2.57,0,0,1,1-1.16,2.86,2.86,0,0,1,1.51-.4,2.56,2.56,0,0,1,1,.18,2.46,2.46,0,0,1,.78.47,2.23,2.23,0,0,1,.54.69,2,2,0,0,1,.23.8h-1a1.51,1.51,0,0,0-.27-.64,1.5,1.5,0,0,0-.52-.48,1.39,1.39,0,0,0-.71-.18,1.58,1.58,0,0,0-1.56,1.08,3.76,3.76,0,0,0-.23,1.42,4.33,4.33,0,0,0,.14,1.16,2.42,2.42,0,0,0,.39.77,1.57,1.57,0,0,0,.58.42,1.87,1.87,0,0,0,.71.13,1.53,1.53,0,0,0,.66-.13,1.37,1.37,0,0,0,.47-.33,1.61,1.61,0,0,0,.3-.45,1.75,1.75,0,0,0,.13-.47l0-.52H126.5v-.7H129v3.37h-.7v-1a2.24,2.24,0,0,1-.43.51,2,2,0,0,1-.63.39A2.33,2.33,0,0,1,126.37,64.85Z"/><path class="cls-4" d="M135.05,58.15a2.29,2.29,0,0,1,.92.18,1.58,1.58,0,0,1,.67.48,1.19,1.19,0,0,1,.18,1.13,1.89,1.89,0,0,1-.24.43,3,3,0,0,1-.47.46,5.47,5.47,0,0,1-.73.47l1.32,1.54c.05-.08.11-.2.19-.36a4,4,0,0,0,.22-.57,3.62,3.62,0,0,0,.12-.71h1A4.76,4.76,0,0,1,138,62a7.11,7.11,0,0,1-.37.73l-.42.65,1.15,1.35H137.2l-.61-.7a3.65,3.65,0,0,1-1,.57,3.12,3.12,0,0,1-1,.17,2.57,2.57,0,0,1-1.1-.21,1.49,1.49,0,0,1-.67-.59,1.77,1.77,0,0,1-.05-1.65,2,2,0,0,1,.52-.64,5.47,5.47,0,0,1,.87-.57q-.24-.27-.42-.51a1.87,1.87,0,0,1-.28-.49,1.32,1.32,0,0,1-.1-.53,1.34,1.34,0,0,1,.22-.74,1.45,1.45,0,0,1,.62-.52A2,2,0,0,1,135.05,58.15Zm-.45,3.56a2.4,2.4,0,0,0-.73.59,1.1,1.1,0,0,0-.26.79,1,1,0,0,0,.19.51,1.2,1.2,0,0,0,.41.33,1.46,1.46,0,0,0,.55.11,1.85,1.85,0,0,0,.71-.15,2,2,0,0,0,.64-.41Zm.49-2.92a.78.78,0,0,0-.6.23.71.71,0,0,0-.22.53,1,1,0,0,0,.09.4,2.22,2.22,0,0,0,.21.37l.23.29.16.17a3.88,3.88,0,0,0,.66-.45,1.31,1.31,0,0,0,.32-.39.81.81,0,0,0,.09-.37.71.71,0,0,0-.14-.45.75.75,0,0,0-.35-.26A1.12,1.12,0,0,0,135.09,58.79Z"/><path class="cls-4" d="M142.28,64.76V58.25h2.16a3.17,3.17,0,0,1,1.83.44,1.44,1.44,0,0,1,.61,1.26,1.47,1.47,0,0,1-.26.87,2,2,0,0,1-.92.62,2,2,0,0,1,.64.24,1.4,1.4,0,0,1,.42.37,1.32,1.32,0,0,1,.21.45,1.68,1.68,0,0,1,.07.5,1.51,1.51,0,0,1-.62,1.32,3.35,3.35,0,0,1-1.9.44Zm1-3.69h1.37a2.61,2.61,0,0,0,.48,0,1.25,1.25,0,0,0,.43-.17.81.81,0,0,0,.31-.3.9.9,0,0,0,.11-.48.85.85,0,0,0-.4-.78,1.88,1.88,0,0,0-1-.26h-1.26Zm0,2.91h1.28a2.1,2.1,0,0,0,1.15-.26.88.88,0,0,0,.39-.78.93.93,0,0,0-.19-.61,1.12,1.12,0,0,0-.52-.35,2.17,2.17,0,0,0-.74-.12h-1.37Z"/><path class="cls-4" d="M153.25,62.45a3,3,0,0,1-.25,1.29,1.72,1.72,0,0,1-.79.83,3.11,3.11,0,0,1-1.4.28,3,3,0,0,1-1.41-.29,1.68,1.68,0,0,1-.78-.84,3.22,3.22,0,0,1-.25-1.35V58.25h1v4.24a1.52,1.52,0,0,0,.38,1.15,1.45,1.45,0,0,0,1.06.38,1.77,1.77,0,0,0,.79-.17,1.1,1.1,0,0,0,.5-.5,1.83,1.83,0,0,0,.18-.86V58.25h1Z"/><path class="cls-4" d="M159.08,58.25h1v6.51h-.86l-3.39-5v5h-1V58.25h.93l3.31,4.85Z"/><path class="cls-4" d="M164.23,64.85a2.71,2.71,0,0,1-1.5-.4,2.54,2.54,0,0,1-1-1.14,4.36,4.36,0,0,1-.34-1.79,4.28,4.28,0,0,1,.35-1.8,2.66,2.66,0,0,1,1-1.16,2.86,2.86,0,0,1,1.51-.4,2.56,2.56,0,0,1,1,.18,2.46,2.46,0,0,1,.78.47,2.23,2.23,0,0,1,.54.69,1.88,1.88,0,0,1,.22.8h-1a1.51,1.51,0,0,0-.27-.64,1.59,1.59,0,0,0-.52-.48,1.41,1.41,0,0,0-.71-.18,1.58,1.58,0,0,0-1.56,1.08,3.76,3.76,0,0,0-.23,1.42,4.33,4.33,0,0,0,.14,1.16,2.42,2.42,0,0,0,.39.77,1.57,1.57,0,0,0,.58.42,1.87,1.87,0,0,0,.71.13,1.53,1.53,0,0,0,.66-.13,1.37,1.37,0,0,0,.47-.33,1.61,1.61,0,0,0,.3-.45,1.42,1.42,0,0,0,.12-.47l0-.52h-1.53v-.7h2.53v3.37h-.7v-1a2.53,2.53,0,0,1-.43.51,2,2,0,0,1-.63.39A2.33,2.33,0,0,1,164.23,64.85Z"/><path class="cls-4" d="M168,64.76l2.34-6.51h1.07l2.34,6.51h-1l-.61-1.71h-2.57L169,64.76Zm1.83-2.58h2.09l-1-3Z"/><path class="cls-4" d="M175,58.25h1v5.66h3v.85h-4Z"/><path class="cls-4" d="M182.55,64.85a2.82,2.82,0,0,1-1.53-.4,2.55,2.55,0,0,1-1-1.13,4.83,4.83,0,0,1,0-3.61,2.68,2.68,0,0,1,1-1.15,3.09,3.09,0,0,1,3,0,2.6,2.6,0,0,1,1,1.15,4.3,4.3,0,0,1,.35,1.81,4.2,4.2,0,0,1-.35,1.79,2.52,2.52,0,0,1-1,1.14A2.76,2.76,0,0,1,182.55,64.85Zm0-.82a1.7,1.7,0,0,0,1-.27,1.58,1.58,0,0,0,.62-.81,4.05,4.05,0,0,0,.21-1.42,4.24,4.24,0,0,0-.21-1.45,1.74,1.74,0,0,0-.62-.83,1.7,1.7,0,0,0-1-.27,1.75,1.75,0,0,0-1,.27,1.66,1.66,0,0,0-.62.84,3.89,3.89,0,0,0-.22,1.44A3.81,3.81,0,0,0,181,63a1.58,1.58,0,0,0,.62.81A1.75,1.75,0,0,0,182.55,64Z"/><path class="cls-4" d="M194.23,58.25l-1.9,6.51h-.85l-1.37-4.83-1.39,4.83h-.82L186,58.25h1l1.38,4.94,1.4-4.94h.73l1.4,4.94,1.39-4.94Z"/><path class="cls-4" d="M197.48,64.85a3.37,3.37,0,0,1-.9-.12,2.63,2.63,0,0,1-.8-.35,2,2,0,0,1-.6-.58,1.68,1.68,0,0,1-.29-.81h1a1.19,1.19,0,0,0,.3.59,1.42,1.42,0,0,0,.56.36,2,2,0,0,0,.73.13,2.3,2.3,0,0,0,.77-.12,1.27,1.27,0,0,0,.55-.35.72.72,0,0,0,.2-.53.82.82,0,0,0-.13-.48,1.08,1.08,0,0,0-.39-.34,2.81,2.81,0,0,0-.6-.2l-1.23-.28a2.35,2.35,0,0,1-1.15-.57,1.58,1.58,0,0,1-.42-1.11,1.68,1.68,0,0,1,.31-1,2,2,0,0,1,.84-.67,3.34,3.34,0,0,1,2.56,0,2,2,0,0,1,.82.7,1.67,1.67,0,0,1,.28.94h-1a1.07,1.07,0,0,0-.76-1,2.17,2.17,0,0,0-.69-.1,2.24,2.24,0,0,0-.52.06,1.71,1.71,0,0,0-.43.2,1,1,0,0,0-.3.32.82.82,0,0,0-.11.44.69.69,0,0,0,.22.54,2,2,0,0,0,.83.36l1.21.27a2.36,2.36,0,0,1,.83.32,1.58,1.58,0,0,1,.49.47,1.61,1.61,0,0,1,.24.56,2.62,2.62,0,0,1,.06.54,1.48,1.48,0,0,1-.3.91,2,2,0,0,1-.86.65A3.38,3.38,0,0,1,197.48,64.85Z"/><path class="cls-5" d="M32.75,65.85A32.75,32.75,0,0,0,65.5,33.3H0A32.76,32.76,0,0,0,32.75,65.85Z"/><path class="cls-6" d="M49.13,49.7h0A16.37,16.37,0,0,1,32.75,33.33H65.5A16.37,16.37,0,0,1,49.13,49.7Z"/><path class="cls-2" d="M16.38,17h0A16.37,16.37,0,0,1,32.75,33.32H0A16.37,16.37,0,0,1,16.38,17Z"/><path class="cls-4" d="M49.13,16.91h0a7.32,7.32,0,0,0-7.32,7.32v9.09H56.45V24.23A7.32,7.32,0,0,0,49.13,16.91Z"/><path class="cls-6" d="M16.38,40.64h0a7.31,7.31,0,0,1-7.32-7.31H23.7A7.31,7.31,0,0,1,16.38,40.64Z"/><path class="cls-7" d="M16.38,26h0a7.31,7.31,0,0,1,7.32,7.31H9.06A7.31,7.31,0,0,1,16.38,26Z"/></g></g></svg>